<?xml version="1.0" standalone="no"?>
<!DOCTYPE svg PUBLIC "-//W3C//DTD SVG 20010904//EN"
 "http://www.w3.org/TR/2001/REC-SVG-20010904/DTD/svg10.dtd">
<svg version="1.0" xmlns="http://www.w3.org/2000/svg"
 width="484.000000pt" height="925.000000pt" viewBox="0 0 484.000000 925.000000"
 preserveAspectRatio="xMidYMid meet">

<g transform="translate(0.000000,925.000000) scale(0.100000,-0.100000)"
fill="#000000" stroke="none">
<path d="M3480 9244 c-14 -2 -79 -11 -145 -20 -66 -8 -193 -31 -283 -50 -911
-194 -1558 -713 -2028 -1629 -126 -245 -197 -405 -181 -410 63 -21 221 -62
354 -90 144 -31 475 -88 478 -82 1 1 28 70 60 152 77 196 247 533 360 713 330
525 748 950 1304 1325 80 53 136 96 126 96 -11 -1 -31 -3 -45 -5z"/>
<path d="M1501 9060 c-327 -171 -556 -336 -805 -579 -263 -259 -437 -490 -618
-821 -37 -69 -68 -130 -68 -137 0 -19 419 -224 619 -302 101 -40 184 -71 186
-69 2 2 13 73 25 158 60 433 173 804 352 1152 110 215 220 376 436 640 13 15
20 28 15 28 -4 0 -68 -32 -142 -70z"/>
<path d="M3530 8715 c-121 -19 -239 -59 -360 -121 -130 -67 -219 -133 -335
-249 l-90 -90 220 -7 c227 -6 325 -19 493 -63 513 -136 882 -521 1085 -1133
l53 -162 46 78 c272 457 258 961 -38 1330 -254 318 -671 480 -1074 417z"/>
<path d="M3022 8063 c-155 -84 -371 -352 -501 -623 -140 -289 -200 -578 -188
-895 14 -362 123 -705 337 -1066 l60 -100 2 -2572 c3 -2438 4 -2574 21 -2618
44 -112 146 -179 275 -179 l72 0 0 4035 0 4035 -23 0 c-12 0 -37 -8 -55 -17z"/>
</g>
</svg>
